<?xml version="1.0" encoding="iso-8859-1"?>
<!-- Generator: Adobe Illustrator 19.0.0, SVG Export Plug-In . SVG Version: 6.00 Build 0)  -->
<svg version="1.1" id="Layer_1" xmlns="http://www.w3.org/2000/svg" xmlns:xlink="http://www.w3.org/1999/xlink" x="0px" y="0px"
	 viewBox="0 0 512 512" style="enable-background:new 0 0 512 512;" xml:space="preserve">
<circle style="fill:#FFEDB5;" cx="256" cy="256" r="256"/>
<path style="fill:#FEE187;" d="M158.02,359.152l147.956,147.956c101.29-20.047,181.081-99.837,201.132-201.125l-127.56-127.559
	L158.02,359.152z"/>
<path style="fill:#366796;" d="M190.986,392.12l-71.106-71.108c-13.69-13.69-13.69-35.883,0-49.573L271.441,119.88
	c13.69-13.69,35.883-13.69,49.573,0l71.108,71.108c13.69,13.69,13.69,35.883,0,49.573L240.561,392.12
	C226.871,405.809,204.676,405.809,190.986,392.12z"/>
<path style="fill:#273B7A;" d="M392.12,190.988l-37.995-37.997L152.991,354.125l37.995,37.995c13.69,13.69,35.883,13.69,49.573,0
	L392.12,240.559C405.809,226.871,405.809,204.676,392.12,190.988z"/>
<path style="fill:#FF6262;" d="M392.12,240.559c13.69-13.69,13.69-35.883,0-49.573l-71.108-71.106
	c-13.69-13.69-35.883-13.69-49.573,0l-70.904,70.904l120.68,120.68L392.12,240.559z"/>
<path style="fill:#E03A00;" d="M392.12,190.988l-37.995-37.997l-95.691,95.691l62.781,62.781l70.904-70.904
	C405.809,226.871,405.809,204.676,392.12,190.988z"/>
<g>
</g>
<g>
</g>
<g>
</g>
<g>
</g>
<g>
</g>
<g>
</g>
<g>
</g>
<g>
</g>
<g>
</g>
<g>
</g>
<g>
</g>
<g>
</g>
<g>
</g>
<g>
</g>
<g>
</g>
</svg>
