<?xml version="1.0" encoding="iso-8859-1"?>
<!-- Generator: Adobe Illustrator 19.0.0, SVG Export Plug-In . SVG Version: 6.00 Build 0)  -->
<svg version="1.1" id="bucket" xmlns="http://www.w3.org/2000/svg" xmlns:xlink="http://www.w3.org/1999/xlink" x="0px" y="0px"
	 viewBox="0 0 473.931 473.931" style="enable-background:new 0 0 473.931 473.931;" xml:space="preserve">
<circle style="fill:#49A0AE;" cx="236.966" cy="236.966" r="236.966"/>
<g>
	<path style="fill:#F5D8A4;" d="M330.764,359.534c0,9.403-7.622,17.036-17.029,17.036H152.885c-9.407,0-17.033-7.633-17.033-17.036
		l-22.234-202.699c0-9.407,239.387-9.407,239.387,0L330.764,359.534z"/>
	<path style="fill:#F5D8A4;" d="M123.572,163.545c0,0,3.113-95.493,109.66-95.493c106.55,0,109.821,95.493,109.821,95.493
		l9.953-6.709c0,0,4.09-107.07-119.781-107.07c-123.867,0-119.605,107.07-119.605,107.07L123.572,163.545z"/>
</g>
<g>
	<path style="fill:#E9CA92;" d="M233.224,68.051V49.765c-123.867,0-119.605,107.07-119.605,107.07l22.234,202.699
		c0,9.403,7.626,17.036,17.032,17.036h80.339l-0.427-227.926c-44.224,0-88.01,2.425-108.04,5.003
		C128.937,129.248,147.908,68.051,233.224,68.051z"/>
	<path style="fill:#E9CA92;" d="M127.669,159.343c0,2.739-1.283,4.954-2.87,4.954h-10.29c-1.587,0-2.866-2.215-2.866-4.954v-8.464
		c0-2.731,1.28-4.954,2.866-4.954h10.29c1.587,0,2.87,2.223,2.87,4.954V159.343z"/>
</g>
<g>
	<path style="fill:#F5D8A4;" d="M355.16,159.343c0,2.739-1.283,4.954-2.87,4.954h-10.29c-1.583,0-2.87-2.215-2.87-4.954v-8.464
		c0-2.731,1.287-4.954,2.87-4.954h10.29c1.587,0,2.87,2.223,2.87,4.954V159.343z"/>
	<path style="fill:#EDC92C;" d="M131.976,152.959c0,0,34.697,91.77,74.323,32.314c0,0,14.945-18.088,30.649,0.864
		c15.704,18.956,11.977,41.979,14.956,53.417c2.241,8.625,20.598,28.056,26.544-10.342c7.472-48.25,22.802-44.366,31.027-38.772
		c8.221,5.601,18.249,2.26,21.68-13.785c3.431-16.06,4.397-23.813,4.397-23.813S228.423,143.474,131.976,152.959z"/>
	<path style="fill:#DBB626;" d="M131.976,152.959c0,0,34.697,91.77,74.323,32.314c0,0,12.61-15.266,26.828-3.064l0.636-33.564
		C205.628,148.806,161.595,150.041,131.976,152.959z"/>
</g>
<g>
</g>
<g>
</g>
<g>
</g>
<g>
</g>
<g>
</g>
<g>
</g>
<g>
</g>
<g>
</g>
<g>
</g>
<g>
</g>
<g>
</g>
<g>
</g>
<g>
</g>
<g>
</g>
<g>
</g>
</svg>
